<svg height="70" overflow="visible" viewBox="0 0 70  70" width="70" xmlns="http://www.w3.org/2000/svg"><g><defs><path id="path-1671524808768639467" d="M35.00000000000003 0 C54.317025857290055 0 70.00000000000006 15.68297414271001 70.00000000000006 35.00000000000003 C70.00000000000006 54.317025857290055 54.317025857290055 70.00000000000006 35.00000000000003 70.00000000000006 C15.68297414271001 70.00000000000006 0 54.317025857290055 0 35.00000000000003 C0 15.68297414271001 15.68297414271001 0 35.00000000000003 0 Z" vector-effect="non-scaling-stroke"/></defs> <path d="M35.00000000000003 0 C54.31702585729005 0 70.00000000000006 15.682974142710009 70.00000000000006 35 C70.00000000000006 54.31702585728999 54.31702585729005 70 35.00000000000003 70 C15.682974142710009 70 0 54.31702585728999 0 35 C0 15.682974142710009 15.682974142710009 0 35.00000000000003 0 Z" style="stroke: rgb(140, 140, 140); stroke-width: 0; stroke-linecap: butt; stroke-linejoin: miter; fill: rgb(233, 249, 238);" vector-effect="non-scaling-stroke"/></g><g><defs><path id="path-1671524808768639469" d="M40.0555137844611 18.654545454545527 C44.80254269005843 18.654545454545527 48.65639097744357 22.50392727272735 48.65639097744357 27.245454545454653 C48.65639097744357 31.986981818181942 44.80254269005843 35.83636363636372 40.0555137844611 35.83636363636372 C35.308484878863815 35.83636363636372 31.45463659147863 31.986981818181942 31.45463659147863 27.245454545454653 C31.45463659147863 22.50392727272735 35.308484878863815 18.654545454545527 40.0555137844611 18.654545454545527 Z" vector-effect="non-scaling-stroke"/></defs> <path d="M34.500000000000114 12 C39.24702890559746 12 43.10087719298258 15.849381818181882 43.10087719298258 20.590909090909463 C43.10087719298258 25.33243636363659 39.24702890559746 29.18181818181847 34.500000000000114 29.18181818181847 C29.752971094402852 29.18181818181847 25.899122807017648 25.33243636363659 25.899122807017648 20.590909090909463 C25.899122807017648 15.849381818181882 29.752971094402852 12 34.500000000000114 12 Z" style="stroke-width: 0; stroke-linecap: butt; stroke-linejoin: miter; fill: rgb(3, 140, 51);" vector-effect="non-scaling-stroke"/></g><g><defs><path id="path-1671524808804639769" d="M2.57051,9.9335v-3.04478c-0.80168,-0.27127 -1.38961,-0.68189 -1.76379,-1.23167c-0.37418,-0.54978 -0.56134,-1.21719 -0.56134,-2.00187c0,-0.79463 0.21161,-1.46186 0.63499,-2.00205c0.42322,-0.54019 0.98671,-0.85145 1.69015,-0.93379v-0.71935h0.88969v0.71935c0.65027,0.09211 1.16761,0.35488 1.55218,0.78848c0.38442,0.4336 0.62979,1.01378 0.73613,1.74037l-1.55218,0.23978c-0.09412,-0.57168 -0.3395,-0.95913 -0.73613,-1.16272v2.84137c0.98151,0.31488 1.65027,0.72297 2.00611,1.22443c0.35584,0.50128 0.53369,1.14444 0.53369,1.9293c0,0.87679 -0.22383,1.6155 -0.67181,2.21631c-0.44782,0.60063 -1.07044,0.96872 -1.86799,1.10445v1.35889h-0.88969v-1.32251c-0.70756,-0.1017 -1.2822,-0.41424 -1.72391,-0.93741c-0.44171,-0.52318 -0.72391,-1.26207 -0.8466,-2.21631l1.60122,-0.20341c0.06539,0.38745 0.18808,0.7217 0.36807,1.00274c0.17998,0.28086 0.38044,0.48445 0.60122,0.6104zM3.4602,10.03521c0.30665,-0.06786 0.55615,-0.23616 0.74836,-0.50508c0.19236,-0.26874 0.28846,-0.58489 0.28846,-0.94827c0,-0.32448 -0.08083,-0.60425 -0.24232,-0.83933c-0.16165,-0.2349 -0.42643,-0.41532 -0.7945,-0.54127zM2.57051,2.30354c-0.24125,0.09682 -0.43346,0.26168 -0.57662,0.49404c-0.14316,0.23254 -0.21482,0.48934 -0.21482,0.77038c0,0.25679 0.06555,0.49531 0.19633,0.71573c0.13094,0.22042 0.32926,0.39849 0.59511,0.53404z" vector-effect="non-scaling-stroke"/></defs><path d="M2.57051,9.9335v-3.04478c-0.80168,-0.27127 -1.38961,-0.68189 -1.76379,-1.23167c-0.37418,-0.54978 -0.56134,-1.21719 -0.56134,-2.00187c0,-0.79463 0.21161,-1.46186 0.63499,-2.00205c0.42322,-0.54019 0.98671,-0.85145 1.69015,-0.93379v-0.71935h0.88969v0.71935c0.65027,0.09211 1.16761,0.35488 1.55218,0.78848c0.38442,0.4336 0.62979,1.01378 0.73613,1.74037l-1.55218,0.23978c-0.09412,-0.57168 -0.3395,-0.95913 -0.73613,-1.16272v2.84137c0.98151,0.31488 1.65027,0.72297 2.00611,1.22443c0.35584,0.50128 0.53369,1.14444 0.53369,1.9293c0,0.87679 -0.22383,1.6155 -0.67181,2.21631c-0.44782,0.60063 -1.07044,0.96872 -1.86799,1.10445v1.35889h-0.88969v-1.32251c-0.70756,-0.1017 -1.2822,-0.41424 -1.72391,-0.93741c-0.44171,-0.52318 -0.72391,-1.26207 -0.8466,-2.21631l1.60122,-0.20341c0.06539,0.38745 0.18808,0.7217 0.36807,1.00274c0.17998,0.28086 0.38044,0.48445 0.60122,0.6104zM3.4602,10.03521c0.30665,-0.06786 0.55615,-0.23616 0.74836,-0.50508c0.19236,-0.26874 0.28846,-0.58489 0.28846,-0.94827c0,-0.32448 -0.08083,-0.60425 -0.24232,-0.83933c-0.16165,-0.2349 -0.42643,-0.41532 -0.7945,-0.54127zM2.57051,2.30354c-0.24125,0.09682 -0.43346,0.26168 -0.57662,0.49404c-0.14316,0.23254 -0.21482,0.48934 -0.21482,0.77038c0,0.25679 0.06555,0.49531 0.19633,0.71573c0.13094,0.22042 0.32926,0.39849 0.59511,0.53404z" style="stroke-width: 0; stroke-linecap: butt; stroke-linejoin: miter; fill: rgb(255, 255, 255);" transform="translate(32.000000000000114, 14) rotate(0)" vector-effect="non-scaling-stroke"/></g><g><defs><path id="path-1671524808768639477" d="M49.02629824561407 31.01890909090756 C49.02629824561407 31.01890909090756 57.553013157894746 37.34689090908902 57.553013157894746 37.34689090908902 C57.9523859649123 37.643236363634465 58.11775 38.16490909090719 57.96309649122804 38.640109090907124 C57.80844298245616 39.11514545454348 57.368500000000004 39.43636363636165 56.87257017543861 39.43636363636165 C56.87257017543861 39.43636363636165 22.456078947368407 39.43636363636165 22.456078947368407 39.43636363636165 C21.955442982456145 39.43636363636165 21.51241666666668 39.10909090908894 21.361657894736833 38.62783636363441 C21.21073684210525 38.14641818181627 21.38664912280701 37.62196363636174 21.79640789473686 37.33183636363448 C21.79640789473686 37.33183636363448 30.666833333333315 31.050163636362086 30.666833333333315 31.050163636362086 C32.19551754385966 34.6339636363619 35.72917982456139 37.14545454545265 39.839912280701746 37.14545454545265 C43.96281578947369 37.14545454545265 47.505241228070155 34.619072727271 49.02629824561407 31.01890909090756 Z" vector-effect="non-scaling-stroke"/></defs> <path d="M43.76752631578961 24.200727272727363 C43.76752631578961 24.200727272727363 52.294241228070234 30.528709090908706 52.294241228070234 30.528709090908706 C52.69361403508782 30.82505454545435 52.85897807017551 31.346727272727094 52.70432456140355 31.821927272726953 C52.54967105263165 32.296963636363216 52.10972807017549 32.618181818181256 51.613798245614134 32.618181818181256 C51.613798245614134 32.618181818181256 17.19730701754392 32.618181818181256 17.19730701754392 32.618181818181256 C16.696671052631643 32.618181818181256 16.253644736842205 32.290909090908826 16.102885964912332 31.809654545454123 C15.951964912280744 31.32823636363628 16.12787719298251 30.803781818181506 16.53763596491237 30.5136545454543 C16.53763596491237 30.5136545454543 25.40806140350884 24.231981818181794 25.40806140350884 24.231981818181794 C26.936745614035175 27.815781818181676 30.470407894736894 30.32727272727243 34.58114035087726 30.32727272727243 C38.704043859649204 30.32727272727243 42.24646929824564 27.800890909090867 43.76752631578961 24.200727272727363 Z" style="stroke-width: 0; stroke-linecap: butt; stroke-linejoin: miter; fill: rgb(37, 145, 51);" vector-effect="non-scaling-stroke"/></g><g><defs><path id="path-1671524808769639479" d="M58.25877192982452 81.63795867768755 C58.25877192982452 80.91587603305935 57.833109649122775 80.33057851239819 57.307969298245645 80.33057851239819 C52.131214912280655 80.33057851239819 27.386328947368384 80.33057851239819 22.209574561403493 80.33057851239819 C21.68443421052629 80.33057851239819 21.258771929824537 80.91587603305935 21.258771929824537 81.63795867768755 C21.258771929824537 82.34776859504288 21.258771929824537 83.22247933884456 21.258771929824537 83.93228925619988 C21.258771929824537 84.65437190082805 21.68443421052629 85.23966942148918 22.209574561403493 85.23966942148918 C27.386328947368384 85.23966942148918 52.131214912280655 85.23966942148918 57.307969298245645 85.23966942148918 C57.833109649122775 85.23966942148918 58.25877192982452 84.65437190082805 58.25877192982452 83.93228925619988 C58.25877192982452 83.22247933884456 58.25877192982452 82.34776859504288 58.25877192982452 81.63795867768755 Z" vector-effect="non-scaling-stroke"/></defs> <path d="M53.000000000000114 53.398289256198495 C53.000000000000114 52.67620661157025 52.57433771929834 52.09090909090901 52.04919736842123 52.09090909090901 C46.87244298245622 52.09090909090901 22.12755701754395 52.09090909090901 16.95080263157905 52.09090909090901 C16.425662280701857 52.09090909090901 16.000000000000114 52.67620661157025 16.000000000000114 53.398289256198495 C16.000000000000114 54.108099173553455 16.000000000000114 54.98280991735555 16.000000000000114 55.69261983471051 C16.000000000000114 56.41470247933876 16.425662280701857 57 16.95080263157905 57 C22.12755701754395 57 46.87244298245622 57 52.04919736842123 57 C52.57433771929834 57 53.000000000000114 56.41470247933876 53.000000000000114 55.69261983471051 C53.000000000000114 54.98280991735555 53.000000000000114 54.108099173553455 53.000000000000114 53.398289256198495 Z" style="stroke-width: 0; stroke-linecap: butt; stroke-linejoin: miter; fill: rgb(37, 145, 51);" vector-effect="non-scaling-stroke"/></g><g><defs><path id="path-1671524808769639481" d="M35.2166088516747 57.43636363636414 C35.932709330143574 57.43636363636414 36.513157894736835 57.00714545454599 36.513157894736835 56.477618181818606 C36.513157894736835 53.57912727272773 36.513157894736835 44.92996363636406 36.513157894736835 42.031472727273076 C36.513157894736835 41.5019454545458 35.93270933014358 41.07272727272766 35.2166088516747 41.07272727272766 C34.51267942583738 41.07272727272766 33.64521531100479 41.07272727272766 32.94128588516745 41.07272727272766 C32.22518540669859 41.07272727272766 31.644736842105253 41.5019454545458 31.644736842105253 42.031472727273076 C31.644736842105253 44.92996363636406 31.644736842105253 53.57912727272776 31.644736842105253 56.477618181818606 C31.644736842105253 57.00714545454599 32.22518540669859 57.43636363636414 32.94128588516745 57.43636363636414 C33.64521531100479 57.43636363636414 34.51267942583738 57.43636363636414 35.2166088516747 57.43636363636414 Z" vector-effect="non-scaling-stroke"/></defs> <path d="M20.70783692185023 50.61818181818171 C21.42393740031912 50.61818181818171 22.004385964912387 50.188963636363496 22.004385964912387 49.65943636363636 C22.004385964912387 46.760945454545435 22.004385964912387 38.1117818181815 22.004385964912387 35.213290909090574 C22.004385964912387 34.68376363636344 21.42393740031912 34.25454545454522 20.70783692185023 34.25454545454522 C20.003907496012914 34.25454545454522 19.136443381180328 34.25454545454522 18.432513955342984 34.25454545454522 C17.716413476874123 34.25454545454522 17.135964912280798 34.68376363636344 17.135964912280798 35.213290909090574 C17.135964912280798 38.1117818181815 17.135964912280798 46.760945454545435 17.135964912280798 49.65943636363636 C17.135964912280798 50.188963636363496 17.716413476874123 50.61818181818171 18.432513955342984 50.61818181818171 C19.136443381180328 50.61818181818171 20.003907496012914 50.61818181818171 20.70783692185023 50.61818181818171 Z" style="stroke-width: 0; stroke-linecap: butt; stroke-linejoin: miter; fill: rgb(37, 145, 51);" vector-effect="non-scaling-stroke"/></g><g><defs><path id="path-1671524808769639483" d="M48.49412081339699 57.43636363636414 C49.2102212918658 57.43636363636414 49.79066985645913 57.00714545454599 49.79066985645913 56.477618181818606 C49.79066985645913 53.57912727272773 49.79066985645913 44.92996363636406 49.79066985645913 42.031472727273076 C49.79066985645913 41.5019454545458 49.2102212918658 41.07272727272766 48.49412081339699 41.07272727272766 C47.790191387559666 41.07272727272766 46.922727272727045 41.07272727272766 46.218797846889764 41.07272727272766 C45.50269736842084 41.07272727272766 44.92224880382756 41.5019454545458 44.92224880382756 42.031472727273076 C44.92224880382756 44.92996363636406 44.92224880382756 53.57912727272776 44.92224880382756 56.477618181818606 C44.92224880382756 57.00714545454599 45.50269736842082 57.43636363636414 46.218797846889764 57.43636363636414 C46.922727272727045 57.43636363636414 47.790191387559666 57.43636363636414 48.49412081339699 57.43636363636414 Z" vector-effect="non-scaling-stroke"/></defs> <path d="M30.44467902711341 50.61818181818171 C31.160779505582212 50.61818181818171 31.741228070175566 50.188963636363496 31.741228070175566 49.65943636363636 C31.741228070175566 46.760945454545435 31.741228070175566 38.1117818181815 31.741228070175566 35.213290909090574 C31.741228070175566 34.68376363636344 31.160779505582212 34.25454545454522 30.44467902711341 34.25454545454522 C29.740749601276093 34.25454545454522 28.87328548644348 34.25454545454522 28.16935606060619 34.25454545454522 C27.453255582137274 34.25454545454522 26.872807017543977 34.68376363636344 26.872807017543977 35.213290909090574 C26.872807017543977 38.1117818181815 26.872807017543977 46.760945454545435 26.872807017543977 49.65943636363636 C26.872807017543977 50.188963636363496 27.453255582137245 50.61818181818171 28.16935606060619 50.61818181818171 C28.87328548644348 50.61818181818171 29.740749601276093 50.61818181818171 30.44467902711341 50.61818181818171 Z" style="stroke-width: 0; stroke-linecap: butt; stroke-linejoin: miter; fill: rgb(37, 145, 51);" vector-effect="non-scaling-stroke"/></g><g><defs><path id="path-1671524808769639485" d="M61.99292464114826 57.43636363636414 C62.70902511961715 57.43636363636414 63.28947368421046 57.00714545454599 63.28947368421046 56.477618181818606 C63.28947368421046 53.57912727272773 63.28947368421046 44.92996363636406 63.28947368421046 42.031472727273076 C63.28947368421046 41.5019454545458 62.70902511961715 41.07272727272766 61.99292464114826 41.07272727272766 C61.28899521531101 41.07272727272766 60.421531100478454 41.07272727272766 59.71760167464106 41.07272727272766 C59.00150119617224 41.07272727272766 58.4210526315789 41.5019454545458 58.4210526315789 42.031472727273076 C58.4210526315789 44.92996363636406 58.4210526315789 53.57912727272776 58.4210526315789 56.477618181818606 C58.4210526315789 57.00714545454599 59.00150119617224 57.43636363636414 59.71760167464106 57.43636363636414 C60.421531100478454 57.43636363636414 61.28899521531101 57.43636363636414 61.99292464114826 57.43636363636414 Z" vector-effect="non-scaling-stroke"/></defs> <path d="M40.343801834130886 50.61818181818171 C41.059902312599775 50.61818181818171 41.6403508771931 50.188963636363496 41.6403508771931 49.65943636363636 C41.6403508771931 46.760945454545435 41.6403508771931 38.1117818181815 41.6403508771931 35.213290909090574 C41.6403508771931 34.68376363636344 41.059902312599775 34.25454545454522 40.343801834130886 34.25454545454522 C39.639872408293655 34.25454545454522 38.7724082934611 34.25454545454522 38.068478867623696 34.25454545454522 C37.352378389154865 34.25454545454522 36.77192982456154 34.68376363636344 36.77192982456154 35.213290909090574 C36.77192982456154 38.1117818181815 36.77192982456154 46.760945454545435 36.77192982456154 49.65943636363636 C36.77192982456154 50.188963636363496 37.352378389154865 50.61818181818171 38.068478867623696 50.61818181818171 C38.7724082934611 50.61818181818171 39.639872408293655 50.61818181818171 40.343801834130886 50.61818181818171 Z" style="stroke-width: 0; stroke-linecap: butt; stroke-linejoin: miter; fill: rgb(37, 145, 51);" vector-effect="non-scaling-stroke"/></g><g><defs><path id="path-1671524808769639487" d="M75.49172846890033 57.43636363636414 C76.20782894736922 57.43636363636414 76.78827751196255 57.00714545454599 76.78827751196255 56.477618181818606 C76.78827751196255 53.57912727272773 76.78827751196255 44.92996363636406 76.78827751196255 42.031472727273076 C76.78827751196255 41.5019454545458 76.20782894736922 41.07272727272766 75.49172846890033 41.07272727272766 C74.78779904306295 41.07272727272766 73.92033492823043 41.07272727272766 73.21640550239319 41.07272727272766 C72.5003050239242 41.07272727272766 71.91985645933093 41.5019454545458 71.91985645933093 42.031472727273076 C71.91985645933093 44.92996363636406 71.91985645933093 53.57912727272776 71.91985645933093 56.477618181818606 C71.91985645933093 57.00714545454599 72.5003050239242 57.43636363636414 73.21640550239319 57.43636363636414 C73.92033492823043 57.43636363636414 74.78779904306295 57.43636363636414 75.49172846890033 57.43636363636414 Z" vector-effect="non-scaling-stroke"/></defs> <path d="M50.24292464114848 50.61818181818171 C50.959025119617365 50.61818181818171 51.53947368421069 50.188963636363496 51.53947368421069 49.65943636363636 C51.53947368421069 46.760945454545435 51.53947368421069 38.1117818181815 51.53947368421069 35.213290909090574 C51.53947368421069 34.68376363636344 50.959025119617365 34.25454545454522 50.24292464114848 34.25454545454522 C49.538995215311104 34.25454545454522 48.671531100478546 34.25454545454522 47.967601674641344 34.25454545454522 C47.25150119617234 34.25454545454522 46.67105263157907 34.68376363636344 46.67105263157907 35.213290909090574 C46.67105263157907 38.1117818181815 46.67105263157907 46.760945454545435 46.67105263157907 49.65943636363636 C46.67105263157907 50.188963636363496 47.25150119617234 50.61818181818171 47.967601674641344 50.61818181818171 C48.671531100478546 50.61818181818171 49.538995215311104 50.61818181818171 50.24292464114848 50.61818181818171 Z" style="stroke-width: 0; stroke-linecap: butt; stroke-linejoin: miter; fill: rgb(37, 145, 51);" vector-effect="non-scaling-stroke"/></g></svg>