<svg version="1.2" xmlns="http://www.w3.org/2000/svg" xmlns:xlink="http://www.w3.org/1999/xlink" overflow="visible" preserveAspectRatio="none" viewBox="0 0 24 24" width="24" height="24"><g><path xmlns:default="http://www.w3.org/2000/svg" id="cc-visa" d="M20.17,11.05L20,10.48v0.27l-0.1,0.27v0.09L19.13,13h1.44L20.17,11.05z M5.53,12.3  c-0.68-1.83-2.28-3.16-4.2-3.5V8.66h2.82c0.37-0.05,0.71,0.19,0.78,0.56l0.6,3.07l0,0V12.3z M7.4,8.67h1.83l-2.72,6.67H4.69L3.29,10  c0.52,0.23,0.98,0.57,1.36,1c0.39,0.38,0.69,0.84,0.88,1.35l0.18,0.93L7.4,8.67L7.4,8.67z M9.93,8.67h1.73l-1.08,6.68H8.85  L9.93,8.67z M16.6,10.28l-0.16-0.08c-0.41-0.18-0.85-0.27-1.29-0.25c-0.25-0.02-0.51,0.04-0.73,0.17c-0.15,0.08-0.25,0.23-0.26,0.4  c0.01,0.16,0.09,0.31,0.23,0.4c0.23,0.17,0.48,0.31,0.74,0.44c0.81,0.25,1.38,0.97,1.46,1.81c0.01,0.66-0.3,1.29-0.84,1.67  c-0.63,0.44-1.4,0.66-2.17,0.61c-0.66,0.02-1.32-0.1-1.93-0.35l0.24-1.5l0.23,0.11c0.51,0.23,1.06,0.35,1.62,0.34  c0.25,0,0.5-0.05,0.72-0.17c0.19-0.08,0.31-0.27,0.31-0.48c0-0.16-0.08-0.31-0.2-0.41c-0.21-0.18-0.45-0.32-0.7-0.43  c-0.82-0.25-1.41-0.96-1.51-1.81c0-0.63,0.3-1.23,0.82-1.59c0.61-0.43,1.35-0.64,2.09-0.61c0.53,0,1.06,0.09,1.55,0.28L16.6,10.28z   M22.66,15.35h-1.6c-0.11-0.51-0.18-0.85-0.21-1h-2.21l-0.36,1h-1.81L19,9.23c0.14-0.37,0.52-0.6,0.91-0.56h1.33L22.66,15.35z   M23.6,4.35C23.35,4.11,23.01,3.98,22.66,4H1.34C0.98,4,0.64,4.14,0.4,4.4C0.14,4.64,0,4.99,0,5.34v13.32c0,0.36,0.14,0.7,0.4,0.94  C0.64,19.86,0.98,20,1.34,20h21.32C23.4,20,23.99,19.4,24,18.66V5.34c0-0.36-0.14-0.7-0.4-0.94V4.35z" style="fill: rgb(145, 150, 153);" vector-effect="non-scaling-stroke"/></g></svg>