<svg version="1.2" xmlns="http://www.w3.org/2000/svg" xmlns:xlink="http://www.w3.org/1999/xlink" overflow="visible" preserveAspectRatio="none" viewBox="0 0 24 24" width="24" height="24"><g><path xmlns:default="http://www.w3.org/2000/svg" id="cc-mastercard" d="M11.66,6.22c-1.79,1.46-2.52,3.85-1.86,6.06c0.33,1.07,0.98,2.02,1.86,2.72c-1.48,0.99-3.36,1.16-5,0.46  c-1.28-0.53-2.29-1.54-2.82-2.82c-0.56-1.31-0.56-2.8,0-4.11C4.38,7.27,5.4,6.28,6.67,5.76c1.64-0.7,3.52-0.53,5,0.46l0,0  L11.66,6.22z M12,6.47c0.85,0.66,1.48,1.57,1.79,2.6c0.32,1.02,0.32,2.11,0,3.13c-0.31,1.03-0.94,1.94-1.79,2.59  c-0.86-0.65-1.49-1.56-1.8-2.59c-0.32-1.02-0.32-2.11,0-3.13C10.51,8.04,11.14,7.13,12,6.47L12,6.47z M12.34,6.22  c1.48-0.99,3.36-1.16,5-0.46c1.28,0.53,2.29,1.54,2.82,2.82c0.56,1.31,0.56,2.8,0,4.11c-0.53,1.28-1.54,2.29-2.82,2.82  c-1.64,0.7-3.52,0.53-5-0.46c0.89-0.7,1.53-1.66,1.85-2.75c0.33-1.08,0.33-2.22,0-3.3c-0.32-1.09-0.97-2.05-1.85-2.76l0,0V6.22z   M20.05,13.91L20.05,13.91v-0.17H20l0,0h0.18l0,0h-0.12v0.18L20.05,13.91z M20.35,13.91v-0.15L20.3,13.9l0,0l-0.06-0.14v0.16l0,0  v-0.21h0.05l0.06,0.14l0.06-0.14H20.4v0.21l0,0L20.35,13.91z M20.27,18.48h-0.04l0,0h0.05l0,0l0,0H20.27z M20.27,18.53L20.27,18.53  v0.05l0,0v-0.12h0.1c0.01,0.02,0.01,0.04,0,0.06l0,0v0.05l0,0L20.27,18.53z M7.17,17.87c-0.01,0.12,0.03,0.23,0.11,0.32  c0.08,0.08,0.19,0.13,0.31,0.12c0.11,0.01,0.22-0.04,0.3-0.12C7.96,18.1,8,17.99,8,17.88c0.01-0.12-0.03-0.23-0.11-0.32  c-0.08-0.09-0.19-0.13-0.3-0.13c-0.12-0.01-0.23,0.04-0.31,0.12C7.2,17.64,7.16,17.75,7.17,17.87C7.17,17.87,7.17,17.87,7.17,17.87z   M11.73,17.75h0.73c0-0.21-0.18-0.38-0.38-0.37c-0.21,0-0.38,0.18-0.37,0.39L11.73,17.75z M15.8,17.87  c-0.01,0.12,0.03,0.23,0.11,0.32c0.08,0.08,0.19,0.13,0.3,0.12c0.12,0.01,0.23-0.04,0.31-0.12c0.08-0.09,0.12-0.2,0.11-0.32  c0-0.12-0.04-0.23-0.12-0.32c-0.08-0.09-0.19-0.13-0.31-0.13c-0.11-0.01-0.22,0.04-0.3,0.12c-0.08,0.09-0.12,0.2-0.11,0.32l0,0  L15.8,17.87z M18.63,17.87c0,0.12,0.04,0.23,0.12,0.32c0.08,0.09,0.19,0.13,0.31,0.13c0.12,0.01,0.23-0.04,0.31-0.12  c0.08-0.09,0.12-0.2,0.12-0.32c0-0.12-0.04-0.23-0.12-0.32c-0.17-0.17-0.44-0.17-0.61,0c0,0,0,0,0,0  C18.68,17.65,18.64,17.76,18.63,17.87L18.63,17.87L18.63,17.87z M20.28,18.62L20.28,18.62L20.28,18.62L20.28,18.62L20.28,18.62  L20.28,18.62L20.28,18.62L20.28,18.62L20.28,18.62L20.28,18.62L20.28,18.62h-0.11c-0.01,0.03-0.01,0.05,0,0.08l0,0l0,0l0,0l0,0  L20.28,18.62z M6.28,18.62v-0.81c0.03-0.17-0.08-0.33-0.24-0.36c-0.02,0-0.04-0.01-0.07-0.01c-0.18-0.01-0.33,0.12-0.34,0.3  c0,0.03,0,0.05,0,0.07v0.78H5.28v-0.78c0.04-0.17-0.06-0.33-0.23-0.37c-0.02,0-0.03-0.01-0.05-0.01c-0.18-0.01-0.33,0.12-0.34,0.3  c0,0.03,0,0.05,0,0.07v0.78H4.32v-1.4h0.31v0.17c0.08-0.12,0.22-0.2,0.37-0.21c0.19-0.01,0.37,0.08,0.47,0.25  c0.11-0.18,0.32-0.28,0.53-0.25c0.15,0,0.3,0.06,0.41,0.16c0.1,0.11,0.16,0.25,0.15,0.4v0.88H6.24L6.28,18.62z M8,18.41  c-0.11,0.14-0.27,0.22-0.45,0.21C7.34,18.64,7.14,18.56,7,18.41c-0.26-0.3-0.26-0.76,0-1.06c0.13-0.14,0.31-0.21,0.5-0.21  c0.17,0,0.34,0.07,0.45,0.21v-0.17h0.3v1.41H8V18.41z M9.85,18.16c0,0.13-0.06,0.26-0.17,0.33c-0.14,0.09-0.3,0.13-0.47,0.12  c-0.21,0.01-0.42-0.06-0.6-0.18l0.14-0.24c0.14,0.1,0.3,0.15,0.47,0.15c0.21,0,0.32-0.06,0.32-0.18S9.44,17.99,9.25,18H9.12  c-0.24,0.03-0.46-0.14-0.49-0.39c0-0.01,0-0.02,0-0.02c0-0.13,0.06-0.25,0.16-0.33c0.13-0.09,0.28-0.13,0.43-0.12  c0.2-0.01,0.4,0.04,0.57,0.15l-0.12,0.25c-0.14-0.07-0.29-0.11-0.45-0.11c-0.17,0-0.26,0.05-0.26,0.16s0.08,0.16,0.24,0.15h0.15  c0.24-0.03,0.46,0.15,0.49,0.39c0,0.01,0,0.02,0,0.03l0,0L9.85,18.16z M10.85,18.62c-0.25,0.03-0.47-0.15-0.49-0.4  c0-0.04,0-0.08,0-0.12v-0.63H10v-0.29h0.29v-0.42h0.31v0.43h0.5v0.28h-0.5v0.63c-0.02,0.1,0.04,0.2,0.15,0.23  c0.02,0,0.04,0.01,0.05,0c0.09,0,0.19-0.02,0.27-0.07l0.08,0.26c-0.1,0.07-0.23,0.1-0.35,0.1L10.85,18.62z M12.12,17.14  c0.18-0.01,0.36,0.07,0.48,0.2c0.13,0.15,0.2,0.34,0.19,0.54V18h-1.1c0.03,0.21,0.22,0.36,0.43,0.34c0.15,0,0.3-0.06,0.41-0.16  l0.15,0.23c-0.16,0.13-0.36,0.21-0.57,0.2c-0.19,0.01-0.38-0.06-0.52-0.2c-0.14-0.14-0.21-0.34-0.2-0.54  c-0.01-0.2,0.07-0.39,0.2-0.53c0.13-0.14,0.31-0.21,0.5-0.21l0,0L12.12,17.14z M13.99,17.14l-0.09,0.29c-0.06-0.01-0.13-0.01-0.19,0  c-0.17,0-0.3,0.13-0.31,0.29c0,0.02,0,0.04,0.01,0.07v0.79h-0.36v-1.4h0.31v0.17c0.07-0.13,0.21-0.21,0.36-0.21  c0.08,0,0.16,0.01,0.23,0.04L13.99,17.14z M14,17.88c-0.02-0.39,0.29-0.72,0.68-0.74c0.02,0,0.05,0,0.07,0  c0.18,0,0.36,0.06,0.5,0.17l-0.15,0.25c-0.1-0.08-0.23-0.12-0.36-0.12c-0.12-0.01-0.23,0.04-0.31,0.12c-0.16,0.19-0.16,0.46,0,0.65  c0.08,0.08,0.19,0.13,0.31,0.12c0.13,0,0.26-0.04,0.36-0.12l0.15,0.25c-0.14,0.12-0.32,0.18-0.5,0.17  c-0.39,0.02-0.73-0.28-0.75-0.67C14,17.93,14,17.91,14,17.88L14,17.88z M16.55,18.41c-0.1,0.14-0.27,0.22-0.44,0.21  c-0.19,0-0.37-0.07-0.5-0.21c-0.27-0.3-0.27-0.76,0-1.06c0.13-0.14,0.31-0.21,0.5-0.21c0.17-0.01,0.34,0.07,0.44,0.21v-0.17h0.35  v1.41h-0.31v-0.18H16.55z M18.15,17.18l-0.09,0.29c-0.06-0.01-0.13-0.01-0.19,0c-0.17,0-0.3,0.13-0.31,0.29c0,0.02,0,0.04,0.01,0.07  v0.79h-0.3v-1.44h0.3v0.17c0.08-0.16,0.26-0.24,0.43-0.21c0.07,0,0.13,0.01,0.19,0.04H18.15z M19.39,18.59v-0.18  c-0.1,0.14-0.27,0.22-0.45,0.21c-0.19,0-0.36-0.07-0.49-0.21c-0.27-0.3-0.27-0.75,0-1.05c0.14-0.16,0.34-0.24,0.55-0.22  c0.18-0.01,0.34,0.07,0.45,0.21v-0.74h0.3v2h-0.3L19.39,18.59z M20.2,18.38h0.08l0,0l0,0c0,0.02,0,0.04,0,0.06c0,0.02,0,0.03,0,0.05  l0,0l0,0l0,0h-0.09l0,0l0,0c0-0.02,0-0.03,0-0.05C20.19,18.42,20.19,18.4,20.2,18.38L20.2,18.38L20.2,18.38h0.04H20.2z M23.55,4.38  C23.31,4.14,22.99,4.01,22.66,4H1.34C0.98,4,0.64,4.14,0.4,4.4C0.14,4.64,0,4.98,0,5.34v13.32c0,0.36,0.14,0.7,0.4,0.94  C0.64,19.86,0.98,20,1.34,20h21.32c0.74-0.01,1.33-0.6,1.34-1.34V5.34c0-0.36-0.14-0.7-0.4-0.94L23.55,4.38z" style="fill: rgb(145, 150, 153);" vector-effect="non-scaling-stroke"/></g></svg>