<svg version="1.2" xmlns="http://www.w3.org/2000/svg" xmlns:xlink="http://www.w3.org/1999/xlink" overflow="visible" preserveAspectRatio="none" viewBox="0 0 24 24" width="24" height="24"><g><path xmlns:default="http://www.w3.org/2000/svg" id="credit-card-alt" d="M0,18.33C0,18.78,0.18,19.2,0.5,19.51C0.81,19.83,1.23,20,1.67,20h20.66c0.92,0,1.67-0.75,1.67-1.67  l0,0V12H0V18.33L0,18.33z M10.67,16v1.33h-4V16H10.67z M5.34,16v1.33H2.67V16H5.34z M22.34,4H1.67C1.23,4,0.81,4.17,0.5,4.49  C0.18,4.8,0,5.22,0,5.67V8h24V5.67C24,4.75,23.25,4,22.33,4l0,0l0,0H22.34z" style="fill: rgb(145, 150, 153);" vector-effect="non-scaling-stroke"/></g></svg>