<svg height="70" overflow="visible" viewBox="0 0 70  70" width="70" xmlns="http://www.w3.org/2000/svg"><g><defs><path id="path-1671524808770639493" d="M35.00000000000003 0 C54.317025857290055 0 70.00000000000006 15.68297414271001 70.00000000000006 35.00000000000003 C70.00000000000006 54.317025857290055 54.317025857290055 70.00000000000006 35.00000000000003 70.00000000000006 C15.68297414271001 70.00000000000006 0 54.317025857290055 0 35.00000000000003 C0 15.68297414271001 15.68297414271001 0 35.00000000000003 0 Z" vector-effect="non-scaling-stroke"/></defs> <path d="M35 0 C54.317025857290105 0 70.00000000000011 15.682974142710009 70.00000000000011 35 C70.00000000000011 54.31702585728999 54.317025857290105 70 35 70 C15.682974142710009 70 0 54.31702585728999 0 35 C0 15.682974142710009 15.682974142710009 0 35 0 Z" style="stroke: rgb(140, 140, 140); stroke-width: 0; stroke-linecap: butt; stroke-linejoin: miter; fill: rgb(233, 249, 238);" vector-effect="non-scaling-stroke"/></g><g><defs><path id="path-1671524808804639771" d="M5,2.69229c0,-0.71403 -0.26333,-1.39882 -0.73216,-1.90371c-0.46883,-0.5049 -1.10481,-0.78858 -1.76784,-0.78858v0c-0.66303,0 -1.29891,0.28368 -1.76775,0.78858c-0.46883,0.5049 -0.73225,1.18969 -0.73225,1.90371c0,2.71928 0,6.89614 0,9.61542c0,0.71403 0.26342,1.39882 0.73225,1.90371c0.46883,0.5049 1.10472,0.78858 1.76775,0.78858v0c0.66303,0 1.299,-0.28368 1.76784,-0.78858c0.46883,-0.5049 0.73216,-1.18969 0.73216,-1.90371c0,-2.71928 0,-6.89614 0,-9.61542zM2.5,9.61533c0.88699,0 1.60721,0.77562 1.60721,1.73083c0,0.95522 -0.72022,1.73074 -1.60721,1.73074c-0.88699,0 -1.60712,-0.77552 -1.60712,-1.73074c0,-0.95522 0.72013,-1.73083 1.60712,-1.73083zM2.5,10.76925c0.29573,0 0.53571,0.25844 0.53571,0.57691c0,0.31837 -0.23998,0.57691 -0.53571,0.57691c-0.29563,0 -0.53571,-0.25854 -0.53571,-0.57691c0,-0.31847 0.24007,-0.57691 0.53571,-0.57691z" vector-effect="non-scaling-stroke"/></defs><path d="M5,2.69229c0,-0.71403 -0.26333,-1.39882 -0.73216,-1.90371c-0.46883,-0.5049 -1.10481,-0.78858 -1.76784,-0.78858v0c-0.66303,0 -1.29891,0.28368 -1.76775,0.78858c-0.46883,0.5049 -0.73225,1.18969 -0.73225,1.90371c0,2.71928 0,6.89614 0,9.61542c0,0.71403 0.26342,1.39882 0.73225,1.90371c0.46883,0.5049 1.10472,0.78858 1.76775,0.78858v0c0.66303,0 1.299,-0.28368 1.76784,-0.78858c0.46883,-0.5049 0.73216,-1.18969 0.73216,-1.90371c0,-2.71928 0,-6.89614 0,-9.61542zM2.5,9.61533c0.88699,0 1.60721,0.77562 1.60721,1.73083c0,0.95522 -0.72022,1.73074 -1.60721,1.73074c-0.88699,0 -1.60712,-0.77552 -1.60712,-1.73074c0,-0.95522 0.72013,-1.73083 1.60712,-1.73083zM2.5,10.76925c0.29573,0 0.53571,0.25844 0.53571,0.57691c0,0.31837 -0.23998,0.57691 -0.53571,0.57691c-0.29563,0 -0.53571,-0.25854 -0.53571,-0.57691c0,-0.31847 0.24007,-0.57691 0.53571,-0.57691z" style="stroke-width: 0; stroke-linecap: butt; stroke-linejoin: miter; fill: rgb(0, 138, 67);" transform="translate(14.000000000000114, 32) rotate(0)" vector-effect="non-scaling-stroke"/></g><g><defs><path id="path-1671524808771639501" d="M8.46373633295637 23.721910783824224 C8.46373633295637 23.721910783824224 8.834308806069243 31.630582093856955 8.834308806069243 31.630582093856955 C8.834308806069243 31.630582093856955 13.842529589768166 31.748905381756956 16.245288832713324 32.38384341214941 C19.333142409660166 33.19979698862763 23.17444014590031 36.79415312460946 27.361711929118133 36.52649439673891 C32.205536361051 36.21694540807146 41.998432689411224 26.985820511743402 44.407012933960914 24.85170733925657 C45.11604848423914 24.223448849310074 42.6865314113378 23.36684549811781 41.81309950929347 23.721910783824224 C39.96042491797441 24.475076680110313 34.896247409174066 28.492247726321963 33.290495950433424 29.37098898299226 C32.9465874201541 29.55916117955586 31.875241463556456 29.24417313652527 32.178872418217466 28.99435832384606 C33.4757352434285 27.927349448605824 39.83686946456258 24.161233701156203 41.07204845019036 22.968649465531747 C41.51979613812431 22.536387776671233 40.18228018880431 21.661749666274883 39.58985244486156 21.83885291009943 C38.53991275222888 22.152695889053547 35.76085392168896 24.035753762778363 34.77269195576223 24.85170733925657 C34.21368802748405 25.313263584072946 34.19200010215112 26.240097531954234 33.6610684235463 26.734765212981376 C32.91992347732055 27.425143429075383 31.637800930366083 28.736337218618928 30.3261039397758 28.99435832384606 C28.41165162175081 29.37098898299226 23.779730425646612 28.93157064365394 22.174072854028598 28.99435832384606 C21.66511076212466 29.014301523177576 21.000671595106734 29.49656434337647 20.6918768486998 29.37098898299226 C20.38308210229284 29.245413622608083 20.19774892217509 28.555035406514065 20.321304375586916 28.241192427559934 C20.444765941876117 27.927349448605824 20.989311253265676 27.527149553885945 21.432927907802878 27.487931109267453 C22.85334618642576 27.362451170889628 26.929455616422004 27.80177408822157 28.843907934446968 27.487931109267453 C30.317372437369027 27.246418011142516 31.68483837881541 27.362451170889628 32.919923477320545 25.604968657549016 C33.33856615723196 25.009249071775034 32.519307124958594 23.838421053603184 31.80829994510459 23.721910783824224 C29.893847627079634 23.408067804870093 23.84150815235253 23.972966082586254 21.432927907802878 23.721910783824224 C19.994764962998484 23.57200281181542 18.80258627954595 22.215483569245663 17.35691236492929 22.215483569245663 C15.565921613193522 22.215483569245663 12.169179402717095 23.470855485062195 10.686983397388286 23.721910783824224 C9.955978260409104 23.845673126087384 8.46373633295637 23.721910783824224 8.46373633295637 23.721910783824224 Z" vector-effect="non-scaling-stroke"/></defs> <path d="M19.928784021315323 35.181214272060515 C19.928784021315323 35.181214272060515 20.29935649442814 43.0898855820933 20.29935649442814 43.0898855820933 C20.29935649442814 43.0898855820933 25.307577278127155 43.20820886999354 27.710336521072236 43.84314690038582 C30.798190098019063 44.65910047686384 34.639487834259285 48.25345661284564 38.82675961747702 47.985797884975455 C43.67058404940997 47.6762488963077 53.46348037777011 38.44512399997984 55.87206062231985 36.31101082749319 C56.58109617259811 35.68275233754639 54.15157909969673 34.82614898635438 53.2781471976524 35.181214272060515 C51.4254726063333 35.934380168346706 46.361295097533 39.95155121455855 44.755543638792346 40.83029247122886 C44.411635108512996 41.01846466779216 43.340289151915385 40.703476624761606 43.64392010657639 40.45366181208237 C44.94078293178745 39.38665293684244 51.30191715292153 35.62053718939251 52.53709613854926 34.427952953768 C52.98484382648326 33.99569126490769 51.64732787716321 33.12105315451117 51.054900133220485 33.29815639833578 C50.004960440587865 33.611999377289976 47.22590161004791 35.495057251014714 46.23773964412112 36.31101082749319 C45.678735715843004 36.77256707230936 45.65704779051009 37.699401020190635 45.126116111905276 38.19406870121793 C44.38497116567953 38.884446917311834 43.102848618725034 40.195640706855556 41.791151628134685 40.45366181208237 C39.87669931010976 40.83029247122886 35.2447781140055 40.39087413189054 33.63912054238756 40.45366181208237 C33.13015845048358 40.47360501141384 32.46571928346566 40.95586783161298 32.156924537058785 40.83029247122886 C31.848129790651797 40.704717110844285 31.662796610533974 40.01433889475038 31.786352063945856 39.70049591579618 C31.90981363023502 39.38665293684244 32.454358941624605 38.98645304212232 32.897975596161814 38.947234597503666 C34.31839387478465 38.82175465912587 38.39450330478098 39.261077576457865 40.30895562280591 38.947234597503666 C41.78242012572798 38.7057214993788 43.14988606717429 38.82175465912587 44.38497116567953 37.06427214578525 C44.80361384559092 36.46855256001163 43.98435481331751 35.29772454183967 43.27334763346357 35.181214272060515 C41.35889531543853 34.867371293106316 35.30655584071144 35.43226957082243 32.897975596161814 35.181214272060515 C31.459812651357424 35.03130630005171 30.267633967904885 33.67478705748226 28.821960053288194 33.67478705748226 C27.03096930155243 33.67478705748226 23.634227091076013 34.9301589732986 22.15203108574724 35.181214272060515 C21.421025948768033 35.304976614324005 19.928784021315323 35.181214272060515 19.928784021315323 35.181214272060515 Z" style="stroke-width: 0; stroke-linecap: butt; stroke-linejoin: miter; fill: rgb(0, 138, 67);" vector-effect="non-scaling-stroke"/></g><g><defs><path id="path-1671524808771639503" d="M11.798700816726864 16.942940607216713 C11.798700816726864 16.942940607216713 12.16917940271708 15.813144051784422 12.16917940271708 15.813144051784422 C12.16917940271708 15.813144051784422 18.338314458025003 19.003006302759566 26.250088396902147 18.825998480941415 C33.39395955959741 18.66616662027008 39.58985244486153 15.813144051784422 39.58985244486153 15.813144051784422 C39.58985244486153 15.813144051784422 39.960424917974386 16.942940607216713 39.960424917974386 16.942940607216713 C39.960424917974386 16.942940607216713 33.161964479520925 20.112477970834856 26.250088396902147 20.33242569551994 C18.216918408434175 20.58806125058775 11.798700816726864 16.942940607216713 11.798700816726864 16.942940607216713 Z" vector-effect="non-scaling-stroke"/></defs> <path d="M23.263748505085914 28.40224409545408 C23.263748505085914 28.40224409545408 23.634227091076127 27.272447540021858 23.634227091076127 27.272447540021858 C23.634227091076127 27.272447540021858 29.803362146384075 30.462309790997097 37.71513608526118 30.285301969178818 C44.85900724795647 30.125470108507216 51.0549001332206 27.272447540021858 51.0549001332206 27.272447540021858 C51.0549001332206 27.272447540021858 51.425472606333415 28.40224409545408 51.425472606333415 28.40224409545408 C51.425472606333415 28.40224409545408 44.627012167880025 31.5717814590721 37.71513608526118 31.79172918375707 C29.68196609679319 32.047364738824854 23.263748505085914 28.40224409545408 23.263748505085914 28.40224409545408 Z" style="stroke-width: 0; stroke-linecap: butt; stroke-linejoin: miter; fill: rgb(0, 138, 67);" vector-effect="non-scaling-stroke"/></g><g><defs><path id="path-1671524808771639505" d="M11.798700816726864 19.5792597992345 C11.798700816726864 19.5792597992345 12.16917940271708 18.4493678217958 12.16917940271708 18.4493678217958 C12.16917940271708 18.4493678217958 18.338314458025003 21.63923007277107 26.250088396902147 21.462222250952905 C33.39395955959741 21.302390390281538 39.58985244486153 18.4493678217958 39.58985244486153 18.4493678217958 C39.58985244486153 18.4493678217958 39.960424917974386 19.5792597992345 39.960424917974386 19.5792597992345 C39.960424917974386 19.5792597992345 33.161964479520925 22.748701740846375 26.250088396902147 22.968649465531463 C24.730055881144036 23.017028422761562 23.267857832940386 22.925709562664533 21.895979196729286 22.745934502661623 C20.723329034788666 22.592209650397972 19.987160106063527 21.620527359522367 18.96679485706667 21.36937663875397 C17.98942991024506 21.128722338686373 16.72073322183001 21.611271424904388 15.91968829135142 21.338555330696135 C13.36548911956638 20.46907000864383 11.798700816726864 19.5792597992345 11.798700816726864 19.5792597992345 Z" vector-effect="non-scaling-stroke"/></defs> <path d="M23.263748505085914 31.038563287471334 C23.263748505085914 31.038563287471334 23.634227091076127 29.908671310032787 23.634227091076127 29.908671310032787 C23.634227091076127 29.908671310032787 29.803362146384075 33.098533561008026 37.71513608526118 32.92152573918975 C44.85900724795647 32.7616938785186 51.0549001332206 29.908671310032787 51.0549001332206 29.908671310032787 C51.0549001332206 29.908671310032787 51.425472606333415 31.038563287471334 51.425472606333415 31.038563287471334 C51.425472606333415 31.038563287471334 44.627012167880025 34.20800522908303 37.71513608526118 34.427952953768454 C36.19510356950309 34.4763319109984 34.73290552129947 34.38501305090131 33.361026885088336 34.205237990898695 C32.18837672314771 34.05151313863462 31.452207794422634 33.07983084775924 30.431842545425752 32.828680126991 C29.454477598604058 32.58802582692306 28.18578091018901 33.07057491314117 27.384735979710513 32.79785881893304 C24.830536807925455 31.928373496880795 23.263748505085914 31.038563287471334 23.263748505085914 31.038563287471334 Z" style="stroke-width: 0; stroke-linecap: butt; stroke-linejoin: miter; fill: rgb(0, 138, 67);" vector-effect="non-scaling-stroke"/></g><g><defs><path id="path-1671524808771639507" d="M33.290495950433105 22.9686494655312 C33.290495950433105 22.9686494655312 36.091430480551175 22.019773034178268 36.55945778697823 21.86118165958974 C36.599923136841845 21.847536312678663 36.64451952010221 21.858223577392238 36.674563399351264 21.888854041437316 C36.73239786690574 21.947538575355455 36.82966492597465 22.046395773955773 36.90214578466306 22.120061562874156 C36.92552367820375 22.143821642460537 36.93735345565806 22.176837656664883 36.93463072910116 22.210330780901106 C36.93190800254416 22.243823905137308 36.914820546221264 22.274358947176037 36.88796882914239 22.29392045848206 C36.3972208390332 22.650130808264926 34.402119482649006 24.09854144296993 34.402119482649006 24.09854144296993 C33.684164655718675 23.955503855419806 33.27575567217651 23.604446293981 33.290495950433105 22.9686494655312 Z" vector-effect="non-scaling-stroke"/></defs> <path d="M44.755543638792346 34.427952953768454 C44.755543638792346 34.427952953768454 47.55647816891042 33.47907652241565 48.02450547533749 33.320485147827185 C48.06497082520116 33.306839800915895 48.1095672084615 33.31752706562975 48.13961108771059 33.34815752967461 C48.19744555526506 33.40684206359265 48.29471261433389 33.50569926219305 48.367193473022326 33.57936505111138 C48.390571366562995 33.60312513069766 48.40240114401729 33.63614114490201 48.39967841746045 33.66963426913844 C48.39695569090338 33.703127393374416 48.3798682345805 33.73366243541341 48.353016517501715 33.75322394671957 C47.86226852739253 34.10943429650206 45.867167171008305 35.557844931207455 45.867167171008305 35.557844931207455 C45.14921234407791 35.41480734365723 44.74080336053578 35.06374978221811 44.755543638792346 34.427952953768454 Z" style="stroke-width: 0; stroke-linecap: butt; stroke-linejoin: miter; fill: rgb(0, 138, 67);" vector-effect="non-scaling-stroke"/></g><g><defs><path id="path-1671524808804639773" d="M2.54543,0l-2.54543,3.31276c0,0 4.78414,3.43008 14.18178,3.68096c6.84503,0.18271 13.81822,-3.68096 13.81822,-3.68096l-2.18186,-3.31276c0,0 -4.48451,2.98176 -11.63635,2.94473c-6.42443,-0.0333 -11.63635,-2.94473 -11.63635,-2.94473zM14,4.4171c1.70589,0 3.09087,0.32988 3.09087,0.73614c0,0.40635 -1.38498,0.73623 -3.09087,0.73623c-1.70598,0 -3.09096,-0.32988 -3.09096,-0.73623c0,-0.40626 1.38498,-0.73614 3.09096,-0.73614z" vector-effect="non-scaling-stroke"/></defs><path d="M2.54543,0l-2.54543,3.31276c0,0 4.78414,3.43008 14.18178,3.68096c6.84503,0.18271 13.81822,-3.68096 13.81822,-3.68096l-2.18186,-3.31276c0,0 -4.48451,2.98176 -11.63635,2.94473c-6.42443,-0.0333 -11.63635,-2.94473 -11.63635,-2.94473zM14,4.4171c1.70589,0 3.09087,0.32988 3.09087,0.73614c0,0.40635 -1.38498,0.73623 -3.09087,0.73623c-1.70598,0 -3.09096,-0.32988 -3.09096,-0.73623c0,-0.40626 1.38498,-0.73614 3.09096,-0.73614z" style="stroke-width: 0; stroke-linecap: butt; stroke-linejoin: miter; fill: rgb(0, 138, 67);" transform="translate(23.000000000000114, 22) rotate(0)" vector-effect="non-scaling-stroke"/></g></svg>