<svg height="100" overflow="visible" viewBox="0 0 100  100" width="100" xmlns="http://www.w3.org/2000/svg"><g><defs><path id="path-167497703014711183" d="M0 50 C0 22.38576250846032 22.38576250846032 0 50 0 C77.61423749153968 0 100 22.38576250846032 100 50 C100 77.61423749153968 77.61423749153968 100 50 100 C22.38576250846032 100 0 77.61423749153968 0 50 Z" vector-effect="non-scaling-stroke"/></defs> <path style="stroke-width: 0; stroke-linecap: butt; stroke-linejoin: miter; fill: rgb(229, 57, 53);" d="M0 50 C0 22.385762508460317 22.38576250846029 0 50 0 C77.61423749153971 0 100 22.385762508460317 100 50 C100 77.61423749153971 77.61423749153971 100 50 100 C22.38576250846029 100 0 77.61423749153971 0 50 Z" vector-effect="non-scaling-stroke"/></g><g><defs><path id="path-167497703014611181" d="M12.50062,3.3756c-3.7813,2.1875 -6.9375,5.3437 -9.125,9.125c-2.2188,3.7812 -3.4063,8.0937 -3.375,12.5c-0.0313,4.4062 1.125,8.7187 3.3437,12.5c2.1875,3.7812 5.3438,6.9375 9.1563,9.125c3.7812,2.2187 8.0937,3.4062 12.5,3.375c4.4062,0.0312 8.7187,-1.125 12.5,-3.3438c3.7812,-2.1875 6.9375,-5.3437 9.125,-9.1562c2.2187,-3.7813 3.4063,-8.0938 3.375,-12.5c0.0313,-4.4063 -1.125,-8.7188 -3.3438,-12.5c-2.1875,-3.7813 -5.3437,-6.9375 -9.1562,-9.125c-3.7813,-2.2188 -8.0938,-3.4063 -12.5,-3.375c-4.4063,-0.0313 -8.7188,1.1562 -12.5,3.375zM29.15682,40.6256c0,0.2812 -0.0937,0.5312 -0.2812,0.75c-0.1875,0.2187 -0.4375,0.3125 -0.7188,0.3125h-6.2812c-0.5625,-0.0313 -1,-0.5 -1.0313,-1.0625v-6.25c0.0313,-0.5625 0.4688,-1 1.0313,-1.0313h6.25c0.2812,0 0.5312,0.0938 0.7187,0.3125c0.1875,0.2188 0.2813,0.4688 0.2813,0.75v6.25zM29.15682,29.4381c-0.0312,0.2187 -0.1562,0.4375 -0.3437,0.5625c-0.2188,0.1562 -0.4688,0.25 -0.75,0.25h-6.1875c-0.2813,0 -0.5625,-0.0938 -0.7813,-0.25c-0.1875,-0.125 -0.3125,-0.3438 -0.3125,-0.5625l-0.4687,-20.25c-0.0313,-0.25 0.0938,-0.4688 0.3125,-0.5938c0.2188,-0.1562 0.5,-0.25 0.7813,-0.25h7.1562c0.2813,0 0.5625,0.0938 0.7813,0.25c0.2187,0.125 0.3437,0.3438 0.3124,0.5938l-0.5937,20.2187z" vector-effect="non-scaling-stroke"/></defs><path style="stroke-width: 0; stroke-linecap: butt; stroke-linejoin: miter; fill: rgb(255, 245, 245);" d="M12.50062,3.3756c-3.7813,2.1875 -6.9375,5.3437 -9.125,9.125c-2.2188,3.7812 -3.4063,8.0937 -3.375,12.5c-0.0313,4.4062 1.125,8.7187 3.3437,12.5c2.1875,3.7812 5.3438,6.9375 9.1563,9.125c3.7812,2.2187 8.0937,3.4062 12.5,3.375c4.4062,0.0312 8.7187,-1.125 12.5,-3.3438c3.7812,-2.1875 6.9375,-5.3437 9.125,-9.1562c2.2187,-3.7813 3.4063,-8.0938 3.375,-12.5c0.0313,-4.4063 -1.125,-8.7188 -3.3438,-12.5c-2.1875,-3.7813 -5.3437,-6.9375 -9.1562,-9.125c-3.7813,-2.2188 -8.0938,-3.4063 -12.5,-3.375c-4.4063,-0.0313 -8.7188,1.1562 -12.5,3.375zM29.15682,40.6256c0,0.2812 -0.0937,0.5312 -0.2812,0.75c-0.1875,0.2187 -0.4375,0.3125 -0.7188,0.3125h-6.2812c-0.5625,-0.0313 -1,-0.5 -1.0313,-1.0625v-6.25c0.0313,-0.5625 0.4688,-1 1.0313,-1.0313h6.25c0.2812,0 0.5312,0.0938 0.7187,0.3125c0.1875,0.2188 0.2813,0.4688 0.2813,0.75v6.25zM29.15682,29.4381c-0.0312,0.2187 -0.1562,0.4375 -0.3437,0.5625c-0.2188,0.1562 -0.4688,0.25 -0.75,0.25h-6.1875c-0.2813,0 -0.5625,-0.0938 -0.7813,-0.25c-0.1875,-0.125 -0.3125,-0.3438 -0.3125,-0.5625l-0.4687,-20.25c-0.0313,-0.25 0.0938,-0.4688 0.3125,-0.5938c0.2188,-0.1562 0.5,-0.25 0.7813,-0.25h7.1562c0.2813,0 0.5625,0.0938 0.7813,0.25c0.2187,0.125 0.3437,0.3438 0.3124,0.5938l-0.5937,20.2187z" transform="translate(25.499381013715038, 24.499396741029443) rotate(0)" vector-effect="non-scaling-stroke"/></g></svg>