<svg version="1.2" xmlns="http://www.w3.org/2000/svg" xmlns:xlink="http://www.w3.org/1999/xlink" overflow="visible" preserveAspectRatio="none" viewBox="0 0 24 24" width="30" height="30"><g><path xmlns:default="http://www.w3.org/2000/svg" id="times-circle" d="M15.77,14.83l-0.94,0.94c-0.13,0.13-0.3,0.2-0.48,0.2c-0.18,0-0.35-0.07-0.47-0.2L12,13.88l-1.88,1.88  c-0.12,0.13-0.29,0.2-0.47,0.2c-0.18,0-0.35-0.07-0.48-0.2l-0.94-0.94C8.09,14.7,8.01,14.53,8,14.35c0-0.18,0.07-0.35,0.2-0.47  L10.12,12l-1.89-1.88C8.09,10,8.01,9.83,8,9.65C8,9.47,8.07,9.3,8.2,9.17l0.94-0.94C9.27,8.08,9.45,8,9.65,8  C9.83,8,10,8.07,10.12,8.2L12,10.12l1.88-1.88C13.99,8.1,14.17,8.01,14.35,8c0.18,0,0.35,0.07,0.48,0.2l0.94,0.94  c0.13,0.13,0.2,0.3,0.2,0.48c0,0.18-0.07,0.35-0.2,0.47L13.88,12l1.88,1.88c0.13,0.12,0.2,0.29,0.2,0.47  C15.97,14.53,15.9,14.7,15.77,14.83z M18.92,8c-0.7-1.21-1.71-2.22-2.92-2.92C14.79,4.37,13.41,3.99,12,4  c-1.41-0.01-2.79,0.37-4,1.08C6.79,5.78,5.78,6.79,5.08,8C4.37,9.21,3.99,10.59,4,12c-0.01,1.41,0.36,2.79,1.07,4  c0.7,1.21,1.71,2.22,2.93,2.92c1.21,0.71,2.59,1.09,4,1.08c1.41,0.01,2.79-0.36,4-1.07c1.21-0.7,2.22-1.71,2.92-2.93  c0.71-1.21,1.09-2.59,1.08-4C20.01,10.59,19.63,9.21,18.92,8z" style="fill: rgb(229, 57, 53);" vector-effect="non-scaling-stroke"/></g></svg>