<svg height="53" overflow="visible" viewBox="0 0 53  53" width="53" xmlns="http://www.w3.org/2000/svg"><g><defs><path id="path-167688798012753746" d="M0 10.000000000000002 C0 4.477152502000001 4.477152502000001 0 10.000000000000002 0 C10.000000000000002 0 43.00000000000002 0 43.00000000000002 0 C48.52284749800002 0 53.00000000000002 4.477152502000001 53.00000000000002 10.000000000000002 C53.00000000000002 10.000000000000002 53.00000000000002 43.00000000000002 53.00000000000002 43.00000000000002 C53.00000000000002 48.52284749800002 48.52284749800002 53.00000000000002 43.00000000000002 53.00000000000002 C43.00000000000002 53.00000000000002 10.000000000000002 53.00000000000002 10.000000000000002 53.00000000000002 C4.477152502000001 53.00000000000002 0 48.52284749800002 0 43.00000000000002 C0 43.00000000000002 0 10.000000000000002 0 10.000000000000002 Z" vector-effect="non-scaling-stroke"/></defs> <path d="M0 10.000000000000002 C0 4.477152502000001 4.477152502000001 0 10.000000000000002 0 C10.000000000000002 0 43 0 43 0 C48.522847498 0 53 4.477152502000001 53 10.000000000000002 C53 10.000000000000002 53 43.00000000000003 53 43.00000000000003 C53 48.522847498000026 48.522847498 53.00000000000003 43 53.00000000000003 C43 53.00000000000003 10.000000000000002 53.00000000000003 10.000000000000002 53.00000000000003 C4.477152502000001 53.00000000000003 0 48.522847498000026 0 43.00000000000003 C0 43.00000000000003 0 10.000000000000002 0 10.000000000000002 Z" style="stroke: rgb(140, 140, 140); stroke-width: 0; stroke-linecap: butt; stroke-linejoin: miter; fill: rgb(246, 248, 249);" vector-effect="non-scaling-stroke"/></g><g><defs><path id="path-167688798012953759" d="M0,24h35v-4h-35zM0,14h35v-4h-35zM0,0v4h35v-4z" vector-effect="non-scaling-stroke"/></defs><path d="M0,24h35v-4h-35zM0,14h35v-4h-35zM0,0v4h35v-4z" style="stroke-width: 0; stroke-linecap: butt; stroke-linejoin: miter; fill: rgb(197, 201, 204);" transform="translate(9.499999999999886, 14.5) rotate(0)" vector-effect="non-scaling-stroke"/></g></svg>