<svg height="70" overflow="visible" viewBox="0 0 70  70" width="70" xmlns="http://www.w3.org/2000/svg"><g><defs><path id="path-1671524808772639517" d="M35.00000000000003 0 C54.317025857290055 0 70.00000000000006 15.68297414271001 70.00000000000006 35.00000000000003 C70.00000000000006 54.317025857290055 54.317025857290055 70.00000000000006 35.00000000000003 70.00000000000006 C15.68297414271001 70.00000000000006 0 54.317025857290055 0 35.00000000000003 C0 15.68297414271001 15.68297414271001 0 35.00000000000003 0 Z" vector-effect="non-scaling-stroke"/></defs> <path d="M35 0 C54.317025857290105 0 70.00000000000011 15.682974142710009 70.00000000000011 35 C70.00000000000011 54.31702585728999 54.317025857290105 70 35 70 C15.682974142710009 70 0 54.31702585728999 0 35 C0 15.682974142710009 15.682974142710009 0 35 0 Z" style="stroke: rgb(140, 140, 140); stroke-width: 0; stroke-linecap: butt; stroke-linejoin: miter; fill: rgb(233, 249, 238);" vector-effect="non-scaling-stroke"/></g><g><defs><path id="path-1671524808804639775" d="M22,28.69887v8.91589c0,1.31727 -1.02563,2.38524 -2.29067,2.38524h-17.41866c-1.26518,0 -2.29067,-1.06797 -2.29067,-2.38524v-35.22953c0,-1.31814 1.02549,-2.38524 2.29067,-2.38524h17.41866c1.26504,0 2.29067,1.0671 2.29067,2.38524v8.78042l-1.49161,1.03541v-8.30581h-18.57119v30.77681h18.57119v-5.9732zM11.00035,38.78463c-0.88631,0 -1.60468,-0.74716 -1.60468,-1.66977c0,-0.92261 0.71837,-1.67064 1.60468,-1.67064c0.88561,0 1.60398,0.74803 1.60398,1.67064c0,0.92261 -0.71837,1.66977 -1.60398,1.66977zM9.79911,2.15062h2.40179c0.17659,0 0.3194,0.14885 0.3194,0.33215c0,0.18388 -0.14281,0.33346 -0.3194,0.33346h-2.40179c-0.17617,0 -0.31954,-0.14958 -0.31954,-0.33346c0,-0.1833 0.14337,-0.33215 0.31954,-0.33215zM8.72601,2.22374c0.1375,0 0.24876,0.11629 0.24876,0.25903c0,0.14333 -0.11126,0.25962 -0.24876,0.25962c-0.13806,0 -0.24932,-0.11629 -0.24932,-0.25962c0,-0.14275 0.11126,-0.25903 0.24932,-0.25903zM11.00035,0.80298c0.17659,0 0.32024,0.1487 0.32024,0.33302c0,0.18505 -0.14365,0.33419 -0.32024,0.33419c-0.17729,0 -0.32136,-0.14914 -0.32136,-0.33419c0,-0.18432 0.14407,-0.33302 0.32136,-0.33302z" vector-effect="non-scaling-stroke"/></defs><path d="M22,28.69887v8.91589c0,1.31727 -1.02563,2.38524 -2.29067,2.38524h-17.41866c-1.26518,0 -2.29067,-1.06797 -2.29067,-2.38524v-35.22953c0,-1.31814 1.02549,-2.38524 2.29067,-2.38524h17.41866c1.26504,0 2.29067,1.0671 2.29067,2.38524v8.78042l-1.49161,1.03541v-8.30581h-18.57119v30.77681h18.57119v-5.9732zM11.00035,38.78463c-0.88631,0 -1.60468,-0.74716 -1.60468,-1.66977c0,-0.92261 0.71837,-1.67064 1.60468,-1.67064c0.88561,0 1.60398,0.74803 1.60398,1.67064c0,0.92261 -0.71837,1.66977 -1.60398,1.66977zM9.79911,2.15062h2.40179c0.17659,0 0.3194,0.14885 0.3194,0.33215c0,0.18388 -0.14281,0.33346 -0.3194,0.33346h-2.40179c-0.17617,0 -0.31954,-0.14958 -0.31954,-0.33346c0,-0.1833 0.14337,-0.33215 0.31954,-0.33215zM8.72601,2.22374c0.1375,0 0.24876,0.11629 0.24876,0.25903c0,0.14333 -0.11126,0.25962 -0.24876,0.25962c-0.13806,0 -0.24932,-0.11629 -0.24932,-0.25962c0,-0.14275 0.11126,-0.25903 0.24932,-0.25903zM11.00035,0.80298c0.17659,0 0.32024,0.1487 0.32024,0.33302c0,0.18505 -0.14365,0.33419 -0.32024,0.33419c-0.17729,0 -0.32136,-0.14914 -0.32136,-0.33419c0,-0.18432 0.14407,-0.33302 0.32136,-0.33302z" style="stroke-width: 0; stroke-linecap: butt; stroke-linejoin: miter; fill: rgb(0, 138, 67);" transform="translate(20.000000000000114, 14) rotate(0)" vector-effect="non-scaling-stroke"/></g><g><defs><path id="path-1671524808774639529" d="M53.33490376839436 34.73398842922419 C53.33490376839436 34.73398842922419 53.33490376839436 32.60197110213166 53.33490376839436 32.60197110213166 C53.33490376839436 32.49033345931398 53.290004607332506 32.38320202343294 53.210069379605926 32.304270721284524 C53.13013415187938 32.2254847806501 53.021787323874385 32.1811495188541 52.90872976421692 32.1811495188541 C50.87413532147554 32.1811495188541 42.163698075472425 32.1811495188541 40.129103632731066 32.1811495188541 C40.016046073073646 32.1811495188541 39.90769924506857 32.2254847806501 39.82776401734204 32.304416082798596 C39.74782878961546 32.38320202343294 39.70292962855363 32.49033345931398 39.70292962855363 32.60197110213166 C39.70292962855363 34.311422507777536 39.70292962855363 40.72651684740034 39.70292962855363 42.436113614560284 C39.70292962855363 42.54760589586389 39.74782878961546 42.65473733174494 39.82776401734204 42.73366863389343 C39.90769924506857 42.812599936041835 40.016046073073646 42.85693519783795 40.129103632731066 42.85693519783795 C42.163698075472425 42.85693519783795 50.87413532147554 42.85693519783795 52.90872976421692 42.85693519783795 C53.02178732387438 42.85693519783795 53.13013415187938 42.812599936041835 53.210069379605926 42.73366863389343 C53.290004607332506 42.65473733174494 53.33490376839436 42.5476058958639 53.33490376839436 42.436113614560284 C53.33490376839436 41.71119574381576 53.33490376839436 40.30395092595367 53.33490376839436 40.30395092595367 C53.33490376839436 40.30395092595367 49.066980891326224 40.30395092595367 49.066980891326224 40.30395092595367 C47.52995747936886 40.30395092595367 46.28396895731087 39.07361107073374 46.28396895731087 37.55589150216668 C46.28396895731087 37.5313254062862 46.28396895731087 37.506759310405755 46.28396895731087 37.482193214525296 C46.28396895731087 35.96432828444415 47.52995747936886 34.73398842922419 49.066980891326224 34.73398842922419 C49.066980891326224 34.73398842922419 53.33490376839436 34.73398842922419 53.33490376839436 34.73398842922419 Z" vector-effect="non-scaling-stroke"/></defs> <path d="M49.000000000000114 32.71936506090606 C49.000000000000114 32.71936506090606 49.000000000000114 30.587347733813658 49.000000000000114 30.587347733813658 C49.000000000000114 30.475710090996017 48.95510083893828 30.368578655115016 48.87516561121163 30.289647352966313 C48.79523038348509 30.21086141233218 48.68688355548011 30.1665261505359 48.57382599582263 30.1665261505359 C46.53923155308132 30.1665261505359 37.82879430707817 30.1665261505359 35.79419986433675 30.1665261505359 C35.68114230467938 30.1665261505359 35.57279547667429 30.21086141233218 35.49286024894775 30.289792714480427 C35.41292502122121 30.368578655115016 35.36802586015938 30.475710090996017 35.36802586015938 30.587347733813658 C35.36802586015938 32.29679913945938 35.36802586015938 38.71189347908239 35.36802586015938 40.42149024624223 C35.36802586015938 40.532982527545755 35.41292502122121 40.64011396342676 35.49286024894775 40.71904526557546 C35.57279547667429 40.79797656772371 35.68114230467938 40.842311829519986 35.79419986433675 40.842311829519986 C37.82879430707817 40.842311829519986 46.53923155308132 40.842311829519986 48.57382599582263 40.842311829519986 C48.68688355548011 40.842311829519986 48.79523038348509 40.79797656772371 48.87516561121163 40.71904526557546 C48.95510083893828 40.64011396342676 49.000000000000114 40.532982527545755 49.000000000000114 40.42149024624223 C49.000000000000114 39.69657237549745 49.000000000000114 38.289327557635715 49.000000000000114 38.289327557635715 C49.000000000000114 38.289327557635715 44.73207712293197 38.289327557635715 44.73207712293197 38.289327557635715 C43.19505371097455 38.289327557635715 41.94906518891662 37.058987702415834 41.94906518891662 35.54126813384846 C41.94906518891662 35.516702037968116 41.94906518891662 35.49213594208777 41.94906518891662 35.46756984620697 C41.94906518891662 33.94970491612594 43.19505371097455 32.71936506090606 44.73207712293197 32.71936506090606 C44.73207712293197 32.71936506090606 49.000000000000114 32.71936506090606 49.000000000000114 32.71936506090606 Z" style="stroke-width: 0; stroke-linecap: butt; stroke-linejoin: miter; fill: rgb(0, 138, 67);" vector-effect="non-scaling-stroke"/></g><g><defs><path id="path-1671524808774639531" d="M42.523332995059114 31.252725528390698 C42.523332995059114 31.252725528390698 48.16413972807146 28.467744280025887 48.16413972807146 28.467744280025887 C48.16413972807146 28.467744280025887 48.63418242076178 29.39616827049021 48.63418242076178 29.39616827049021 C48.63418242076178 29.39616827049021 46.7540116500004 30.78858621391557 46.7540116500004 30.78858621391557 C46.7540116500004 30.78858621391557 48.16413972807146 30.78858621391557 48.16413972807146 30.78858621391557 C48.16413972807146 30.78858621391557 50.51450040188727 29.860307584965344 50.51450040188727 29.860307584965344 C50.51450040188727 29.860307584965344 51.92477569032241 31.2527255283907 51.92477569032241 31.2527255283907 C51.92477569032241 31.2527255283907 42.523332995059114 31.252725528390698 42.523332995059114 31.252725528390698 Z" vector-effect="non-scaling-stroke"/></defs> <path d="M38.18842922666579 29.238102160072685 C38.18842922666579 29.238102160072685 43.82923595967816 26.45312091170763 43.82923595967816 26.45312091170763 C43.82923595967816 26.45312091170763 44.29927865236846 27.38154490217221 44.29927865236846 27.38154490217221 C44.29927865236846 27.38154490217221 42.41910788160703 28.773962845597453 42.41910788160703 28.773962845597453 C42.41910788160703 28.773962845597453 43.82923595967816 28.773962845597453 43.82923595967816 28.773962845597453 C43.82923595967816 28.773962845597453 46.17959663349393 27.84568421664744 46.17959663349393 27.84568421664744 C46.17959663349393 27.84568421664744 47.5898719219291 29.238102160072685 47.5898719219291 29.238102160072685 C47.5898719219291 29.238102160072685 38.18842922666579 29.238102160072685 38.18842922666579 29.238102160072685 Z" style="stroke-width: 0; stroke-linecap: butt; stroke-linejoin: miter; fill: rgb(0, 138, 67);" vector-effect="non-scaling-stroke"/></g><g><defs><path id="path-1671524808804639777" d="M7,0h-5.24991c-0.96657,0 -1.75009,0.44762 -1.75009,0.99995c0,0.55233 0.78352,1.00005 1.75009,1.00005h5.24991zM2.04165,0.49992c0.48301,0 0.87505,0.22412 0.87505,0.50003c0,0.27601 -0.39204,0.50003 -0.87505,0.50003c-0.48283,0 -0.87505,-0.22402 -0.87505,-0.50003c0,-0.2759 0.39222,-0.50003 0.87505,-0.50003z" vector-effect="non-scaling-stroke"/></defs><path d="M7,0h-5.24991c-0.96657,0 -1.75009,0.44762 -1.75009,0.99995c0,0.55233 0.78352,1.00005 1.75009,1.00005h5.24991zM2.04165,0.49992c0.48301,0 0.87505,0.22412 0.87505,0.50003c0,0.27601 -0.39204,0.50003 -0.87505,0.50003c-0.48283,0 -0.87505,-0.22402 -0.87505,-0.50003c0,-0.2759 0.39222,-0.50003 0.87505,-0.50003z" style="stroke-width: 0; stroke-linecap: butt; stroke-linejoin: miter; fill: rgb(0, 138, 67);" transform="translate(42.000000000000114, 34) rotate(0)" vector-effect="non-scaling-stroke"/></g></svg>