<svg height="15" overflow="visible" viewBox="0 0 95  15" width="95" xmlns="http://www.w3.org/2000/svg"><g><defs><path id="path-1671550681863752" d="M8.55 0 C8.55 0 10.350000000000003 5.7 10.350000000000003 5.7 C10.350000000000003 5.7 16.05 5.7 16.05 5.7 C16.05 5.7 11.400000000000002 9.299999999999997 11.400000000000002 9.299999999999997 C11.400000000000002 9.299999999999997 13.200000000000001 15.000000000000004 13.200000000000001 15.000000000000004 C13.200000000000001 15.000000000000004 8.55 11.4 8.55 11.4 C8.55 11.4 3.9000000000000004 15.000000000000004 3.9000000000000004 15.000000000000004 C3.9000000000000004 15.000000000000004 5.700000000000001 9.299999999999997 5.700000000000001 9.299999999999997 C5.700000000000001 9.299999999999997 1.0500000000000003 5.7 1.0500000000000003 5.7 C1.0500000000000003 5.7 6.75 5.7 6.75 5.7 C6.75 5.7 8.55 0 8.55 0 Z" vector-effect="non-scaling-stroke"/></defs> <path d="M7.5 0 C7.5 0 9.300000000000011 5.699999999999818 9.300000000000011 5.699999999999818 C9.300000000000011 5.699999999999818 15 5.699999999999818 15 5.699999999999818 C15 5.699999999999818 10.349999999999966 9.300000000000182 10.349999999999966 9.300000000000182 C10.349999999999966 9.300000000000182 12.149999999999977 15 12.149999999999977 15 C12.149999999999977 15 7.5 11.400000000000091 7.5 11.400000000000091 C7.5 11.400000000000091 2.849999999999966 15 2.849999999999966 15 C2.849999999999966 15 4.649999999999977 9.300000000000182 4.649999999999977 9.300000000000182 C4.649999999999977 9.300000000000182 0 5.699999999999818 0 5.699999999999818 C0 5.699999999999818 5.699999999999989 5.699999999999818 5.699999999999989 5.699999999999818 C5.699999999999989 5.699999999999818 7.5 0 7.5 0 Z" style="stroke: rgb(140, 140, 140); stroke-width: 0; stroke-linecap: butt; stroke-linejoin: miter; fill: rgb(254, 206, 0);" vector-effect="non-scaling-stroke"/></g><g><defs><path id="path-1671550681863750" d="M8.55 0 C8.55 0 10.350000000000003 5.7 10.350000000000003 5.7 C10.350000000000003 5.7 16.05 5.7 16.05 5.7 C16.05 5.7 11.400000000000002 9.299999999999997 11.400000000000002 9.299999999999997 C11.400000000000002 9.299999999999997 13.200000000000001 15.000000000000004 13.200000000000001 15.000000000000004 C13.200000000000001 15.000000000000004 8.55 11.4 8.55 11.4 C8.55 11.4 3.9000000000000004 15.000000000000004 3.9000000000000004 15.000000000000004 C3.9000000000000004 15.000000000000004 5.700000000000001 9.299999999999997 5.700000000000001 9.299999999999997 C5.700000000000001 9.299999999999997 1.0500000000000003 5.7 1.0500000000000003 5.7 C1.0500000000000003 5.7 6.75 5.7 6.75 5.7 C6.75 5.7 8.55 0 8.55 0 Z" vector-effect="non-scaling-stroke"/></defs> <path d="M87.5 0 C87.5 0 89.30000000000007 5.699999999999818 89.30000000000007 5.699999999999818 C89.30000000000007 5.699999999999818 95 5.699999999999818 95 5.699999999999818 C95 5.699999999999818 90.35000000000002 9.300000000000182 90.35000000000002 9.300000000000182 C90.35000000000002 9.300000000000182 92.15000000000009 15 92.15000000000009 15 C92.15000000000009 15 87.5 11.400000000000091 87.5 11.400000000000091 C87.5 11.400000000000091 82.85000000000002 15 82.85000000000002 15 C82.85000000000002 15 84.65000000000009 9.300000000000182 84.65000000000009 9.300000000000182 C84.65000000000009 9.300000000000182 80 5.699999999999818 80 5.699999999999818 C80 5.699999999999818 85.70000000000005 5.699999999999818 85.70000000000005 5.699999999999818 C85.70000000000005 5.699999999999818 87.5 0 87.5 0 Z" style="stroke: rgb(140, 140, 140); stroke-width: 0; stroke-linecap: butt; stroke-linejoin: miter; fill: rgb(254, 206, 0);" vector-effect="non-scaling-stroke"/></g><g><defs><path id="path-1671550681862748" d="M8.55 0 C8.55 0 10.350000000000003 5.7 10.350000000000003 5.7 C10.350000000000003 5.7 16.05 5.7 16.05 5.7 C16.05 5.7 11.400000000000002 9.299999999999997 11.400000000000002 9.299999999999997 C11.400000000000002 9.299999999999997 13.200000000000001 15.000000000000004 13.200000000000001 15.000000000000004 C13.200000000000001 15.000000000000004 8.55 11.4 8.55 11.4 C8.55 11.4 3.9000000000000004 15.000000000000004 3.9000000000000004 15.000000000000004 C3.9000000000000004 15.000000000000004 5.700000000000001 9.299999999999997 5.700000000000001 9.299999999999997 C5.700000000000001 9.299999999999997 1.0500000000000003 5.7 1.0500000000000003 5.7 C1.0500000000000003 5.7 6.75 5.7 6.75 5.7 C6.75 5.7 8.55 0 8.55 0 Z" vector-effect="non-scaling-stroke"/></defs> <path d="M67.5 0 C67.5 0 69.30000000000007 5.699999999999818 69.30000000000007 5.699999999999818 C69.30000000000007 5.699999999999818 75 5.699999999999818 75 5.699999999999818 C75 5.699999999999818 70.35000000000002 9.300000000000182 70.35000000000002 9.300000000000182 C70.35000000000002 9.300000000000182 72.15000000000009 15 72.15000000000009 15 C72.15000000000009 15 67.5 11.400000000000091 67.5 11.400000000000091 C67.5 11.400000000000091 62.85000000000002 15 62.85000000000002 15 C62.85000000000002 15 64.65000000000009 9.300000000000182 64.65000000000009 9.300000000000182 C64.65000000000009 9.300000000000182 60 5.699999999999818 60 5.699999999999818 C60 5.699999999999818 65.70000000000005 5.699999999999818 65.70000000000005 5.699999999999818 C65.70000000000005 5.699999999999818 67.5 0 67.5 0 Z" style="stroke: rgb(140, 140, 140); stroke-width: 0; stroke-linecap: butt; stroke-linejoin: miter; fill: rgb(254, 206, 0);" vector-effect="non-scaling-stroke"/></g><g><defs><path id="path-1671550681862746" d="M8.55 0 C8.55 0 10.350000000000003 5.7 10.350000000000003 5.7 C10.350000000000003 5.7 16.05 5.7 16.05 5.7 C16.05 5.7 11.400000000000002 9.299999999999997 11.400000000000002 9.299999999999997 C11.400000000000002 9.299999999999997 13.200000000000001 15.000000000000004 13.200000000000001 15.000000000000004 C13.200000000000001 15.000000000000004 8.55 11.4 8.55 11.4 C8.55 11.4 3.9000000000000004 15.000000000000004 3.9000000000000004 15.000000000000004 C3.9000000000000004 15.000000000000004 5.700000000000001 9.299999999999997 5.700000000000001 9.299999999999997 C5.700000000000001 9.299999999999997 1.0500000000000003 5.7 1.0500000000000003 5.7 C1.0500000000000003 5.7 6.75 5.7 6.75 5.7 C6.75 5.7 8.55 0 8.55 0 Z" vector-effect="non-scaling-stroke"/></defs> <path d="M47.5 0 C47.5 0 49.299999999999955 5.699999999999818 49.299999999999955 5.699999999999818 C49.299999999999955 5.699999999999818 55 5.699999999999818 55 5.699999999999818 C55 5.699999999999818 50.35000000000002 9.300000000000182 50.35000000000002 9.300000000000182 C50.35000000000002 9.300000000000182 52.14999999999998 15 52.14999999999998 15 C52.14999999999998 15 47.5 11.400000000000091 47.5 11.400000000000091 C47.5 11.400000000000091 42.849999999999966 15 42.849999999999966 15 C42.849999999999966 15 44.64999999999998 9.300000000000182 44.64999999999998 9.300000000000182 C44.64999999999998 9.300000000000182 40 5.699999999999818 40 5.699999999999818 C40 5.699999999999818 45.69999999999999 5.699999999999818 45.69999999999999 5.699999999999818 C45.69999999999999 5.699999999999818 47.5 0 47.5 0 Z" style="stroke: rgb(140, 140, 140); stroke-width: 0; stroke-linecap: butt; stroke-linejoin: miter; fill: rgb(254, 206, 0);" vector-effect="non-scaling-stroke"/></g><g><defs><path id="path-1671550681862744" d="M8.55 0 C8.55 0 10.350000000000003 5.7 10.350000000000003 5.7 C10.350000000000003 5.7 16.05 5.7 16.05 5.7 C16.05 5.7 11.400000000000002 9.299999999999997 11.400000000000002 9.299999999999997 C11.400000000000002 9.299999999999997 13.200000000000001 15.000000000000004 13.200000000000001 15.000000000000004 C13.200000000000001 15.000000000000004 8.55 11.4 8.55 11.4 C8.55 11.4 3.9000000000000004 15.000000000000004 3.9000000000000004 15.000000000000004 C3.9000000000000004 15.000000000000004 5.700000000000001 9.299999999999997 5.700000000000001 9.299999999999997 C5.700000000000001 9.299999999999997 1.0500000000000003 5.7 1.0500000000000003 5.7 C1.0500000000000003 5.7 6.75 5.7 6.75 5.7 C6.75 5.7 8.55 0 8.55 0 Z" vector-effect="non-scaling-stroke"/></defs> <path d="M27.5 0 C27.5 0 29.30000000000001 5.699999999999818 29.30000000000001 5.699999999999818 C29.30000000000001 5.699999999999818 35 5.699999999999818 35 5.699999999999818 C35 5.699999999999818 30.349999999999966 9.300000000000182 30.349999999999966 9.300000000000182 C30.349999999999966 9.300000000000182 32.14999999999998 15 32.14999999999998 15 C32.14999999999998 15 27.5 11.400000000000091 27.5 11.400000000000091 C27.5 11.400000000000091 22.849999999999966 15 22.849999999999966 15 C22.849999999999966 15 24.649999999999977 9.300000000000182 24.649999999999977 9.300000000000182 C24.649999999999977 9.300000000000182 20 5.699999999999818 20 5.699999999999818 C20 5.699999999999818 25.69999999999999 5.699999999999818 25.69999999999999 5.699999999999818 C25.69999999999999 5.699999999999818 27.5 0 27.5 0 Z" style="stroke: rgb(140, 140, 140); stroke-width: 0; stroke-linecap: butt; stroke-linejoin: miter; fill: rgb(254, 206, 0);" vector-effect="non-scaling-stroke"/></g></svg>